<?xml version="1.0" encoding="utf-8"?><svg xml:space="preserve" viewBox="0 0 100 100" y="0" x="0" xmlns="http://www.w3.org/2000/svg" id="圖層_1" version="1.1" width="47px" height="47px" xmlns:xlink="http://www.w3.org/1999/xlink" style="width:100%;height:100%;background-size:initial;background-repeat-y:initial;background-repeat-x:initial;background-position-y:initial;background-position-x:initial;background-origin:initial;background-image:initial;background-color:rgb(255, 255, 255);background-clip:initial;background-attachment:initial;animation-play-state:paused" ><g class="ldl-scale" style="transform-origin:50% 50%;transform:rotate(0.0) scale(0.8, 0.8);animation-play-state:paused" ><path fill="#e0e0e0" d="M27.5 66.13v14.467c0 2.984 2.52 5.403 5.628 5.403h.664V51.172C29.899 55.051 27.5 60.317 27.5 66.13z" style="fill:rgb(224, 224, 224);animation-play-state:paused" ></path>
<path fill="#e0e0e0" d="M43.674 65.263h12.652A3.674 3.674 0 0 0 60 61.589V46.8a23.116 23.116 0 0 0-10-2.273c-3.597 0-6.985.831-10 2.273v14.79a3.673 3.673 0 0 0 3.674 3.673z" style="fill:rgb(224, 224, 224);animation-play-state:paused" ></path>
<path fill="#e0e0e0" d="M66.208 51.172V86h.664c3.108 0 5.628-2.419 5.628-5.403V66.13c0-5.813-2.399-11.079-6.292-14.958z" style="fill:rgb(224, 224, 224);animation-play-state:paused" ></path>
<path fill="#c59b6d" d="M50.953 56.032l9.318-9.108c-3.081-1.522-6.567-2.397-10.27-2.397s-7.189.875-10.27 2.397l9.318 9.108c.633.494 1.269.494 1.904 0z" style="fill:rgb(197, 155, 109);animation-play-state:paused" ></path>
<path fill="#3fab4b" d="M60 46.82v13.769a3.674 3.674 0 0 1-3.674 3.674H43.674A3.674 3.674 0 0 1 40 60.589V46.82a.574.574 0 0 0-.875-.493c-1.161.718-3.222 2.043-4.602 3.188a2.064 2.064 0 0 0-.732 1.594V86h32.417V51.109c0-.613-.26-1.203-.732-1.594-1.38-1.145-3.441-2.47-4.602-3.188a.574.574 0 0 0-.874.493z" style="fill:rgb(199, 15, 14);animation-play-state:paused" ></path>
<circle fill="#494b32" r="2.5" cy="69.558" cx="62.098" style="fill:rgb(73, 75, 50);animation-play-state:paused" ></circle>
<circle fill="#494b32" r="2.5" cy="69.558" cx="37.902" style="fill:rgb(73, 75, 50);animation-play-state:paused" ></circle>
<circle fill="#c7b299" r="14.513" cy="34.975" cx="50" style="fill:rgb(199, 178, 153);animation-play-state:paused" ></circle>
<ellipse fill="#e3a735" ry="5.5" rx="24.419" cy="27.558" cx="50" style="fill:rgb(227, 167, 53);animation-play-state:paused" ></ellipse>
<path fill="#e3a735" d="M36.667 25.966l1.02-6.371.302-1.887a4.403 4.403 0 0 1 5.177-3.629l6.004 1.152a4.408 4.408 0 0 0 1.659 0l6.004-1.152a4.403 4.403 0 0 1 5.177 3.629l.302 1.887 1.02 6.371c.001 4.789-26.665 4.789-26.665 0z" style="fill:rgb(227, 167, 53);animation-play-state:paused" ></path>
<path fill="#e48e11" d="M36.932 24.312l-.265 1.654c0 4.788 26.665 4.788 26.665 0l-.265-1.654c-4.461 2.99-21.673 2.99-26.135 0z" style="fill:rgb(228, 142, 17);animation-play-state:paused" ></path>
<path fill="#333" d="M59.077 43.761a.116.116 0 0 0-.063-.05 133.91 133.91 0 0 0-4.683-1.526l-2.371-.679a18.466 18.466 0 0 0-1.408-.356l-.033-.007c-.176-.037-.361-.091-.541-.085-.179.006-.354.054-.528.092-.475.103-.946.217-1.408.356l-2.371.679a133.91 133.91 0 0 0-4.683 1.526.116.116 0 0 0-.063.05c-.032.053-.01.12.048.149l.103.051c1.053.524 1.998.74 2.939.943.938.196 1.829.256 2.608-.001.79-.228 1.597-.405 2.285-.926.394-.303.781-.626 1.094-1.159.313.534.7.857 1.094 1.159.687.521 1.495.697 2.285.926.78.257 1.67.197 2.608.001.941-.203 1.886-.42 2.939-.943l.103-.051c.056-.029.078-.096.046-.149z" style="fill:rgb(51, 51, 51);animation-play-state:paused" ></path>
<path fill="#494b32" d="M54.627 83.933h-9.254a3.252 3.252 0 0 1-3.252-3.252v-5.412c0-.784.635-1.419 1.419-1.419h12.921c.784 0 1.419.635 1.419 1.419v5.412a3.254 3.254 0 0 1-3.253 3.252z" style="fill:rgb(73, 75, 50);animation-play-state:paused" ></path>
<metadata xmlns:d="https://loading.io/stock/" style="animation-play-state:paused" ><d:name style="animation-play-state:paused" >farmer</d:name>


<d:tags style="animation-play-state:paused" >grower,agriculture,plant,farmer,people</d:tags>


<d:license style="animation-play-state:paused" >by</d:license>


<d:slug style="animation-play-state:paused" >v7mq42</d:slug></metadata></g><!-- generated by https://loading.io/ --></svg>